<svg width="33" height="25" viewBox="0 0 33 25" fill="none" xmlns="http://www.w3.org/2000/svg">
<path fill-rule="evenodd" clip-rule="evenodd" d="M32.0487 0.272949H1.40725C1.08198 0.272949 0.817993 0.543765 0.817993 0.877449V23.8484C0.817993 24.1827 1.08198 24.4529 1.40725 24.4529H32.0487C32.3746 24.4529 32.638 24.1827 32.638 23.8484V0.877449C32.638 0.543765 32.3746 0.272949 32.0487 0.272949ZM6.71059 22.0349C6.71059 22.3692 6.4466 22.6394 6.12133 22.6394H3.76429C3.43902 22.6394 3.17503 22.3692 3.17503 22.0349V2.69095C3.17503 2.35727 3.43902 2.08645 3.76429 2.08645H6.12133C6.4466 2.08645 6.71059 2.35727 6.71059 2.69095V22.0349ZM11.4247 22.0349C11.4247 22.3692 11.1607 22.6394 10.8354 22.6394C10.5101 22.6394 10.2461 22.3692 10.2461 22.0349V2.69095C10.2461 2.35727 10.5101 2.08645 10.8354 2.08645C11.1607 2.08645 11.4247 2.35727 11.4247 2.69095V22.0349ZM20.8528 22.0349C20.8528 22.3692 20.5894 22.6394 20.2635 22.6394H15.5495C15.2242 22.6394 14.9602 22.3692 14.9602 22.0349V2.69095C14.9602 2.35727 15.2242 2.08645 15.5495 2.08645H20.2635C20.5894 2.08645 20.8528 2.35727 20.8528 2.69095V22.0349ZM25.5669 22.0349C25.5669 22.3692 25.3035 22.6394 24.9776 22.6394C24.6518 22.6394 24.3884 22.3692 24.3884 22.0349V2.69095C24.3884 2.35727 24.6518 2.08645 24.9776 2.08645C25.3035 2.08645 25.5669 2.35727 25.5669 2.69095V22.0349ZM30.281 22.0349C30.281 22.3692 30.0176 22.6394 29.6917 22.6394C29.3658 22.6394 29.1024 22.3692 29.1024 22.0349V2.69095C29.1024 2.35727 29.3658 2.08645 29.6917 2.08645C30.0176 2.08645 30.281 2.35727 30.281 2.69095V22.0349Z" fill="#2522A6"/>
</svg>
