<svg xmlns="http://www.w3.org/2000/svg" width="32" height="26" fill="none" viewBox="0 0 32 26"><path fill="#2522A6" d="M4.54451 2.18276H7.08997C7.44124 2.18276 7.72633 1.89767 7.72633 1.5464C7.72633 1.19513 7.44124 0.910034 7.08997 0.910034H4.54451C4.19324 0.910034 3.90815 1.19513 3.90815 1.5464C3.90815 1.89767 4.19324 2.18276 4.54451 2.18276ZM31.2718 3.45549H0.726329C0.375057 3.45549 0.0899658 3.74058 0.0899658 4.09185V24.4555C0.0899658 24.8074 0.375057 25.0919 0.726329 25.0919H31.2718C31.6237 25.0919 31.9081 24.8074 31.9081 24.4555V4.09185C31.9081 3.74058 31.6237 3.45549 31.2718 3.45549ZM13.4536 21.2737C9.59406 21.2737 6.4536 18.1332 6.4536 14.2737C6.4536 10.4141 9.59406 7.27367 13.4536 7.27367C17.3131 7.27367 20.4536 10.4141 20.4536 14.2737C20.4536 18.1332 17.3131 21.2737 13.4536 21.2737ZM27.4536 8.5464H24.9081C24.5562 8.5464 24.2718 8.26131 24.2718 7.91003C24.2718 7.55876 24.5562 7.27367 24.9081 7.27367H27.4536C27.8055 7.27367 28.09 7.55876 28.09 7.91003C28.09 8.26131 27.8055 8.5464 27.4536 8.5464Z"/><path fill="#2522A6" d="M13.4536 8.54639C10.296 8.54639 7.72632 11.116 7.72632 14.2737C7.72632 17.4319 10.296 20.0009 13.4536 20.0009C16.6112 20.0009 19.1809 17.4319 19.1809 14.2737C19.1809 11.116 16.6112 8.54639 13.4536 8.54639ZM15.999 14.91C15.6478 14.91 15.3627 14.6256 15.3627 14.2737C15.3627 13.2211 14.5061 12.3646 13.4536 12.3646C13.1023 12.3646 12.8172 12.0795 12.8172 11.7282C12.8172 11.3769 13.1023 11.0918 13.4536 11.0918C15.208 11.0918 16.6354 12.5192 16.6354 14.2737C16.6354 14.6256 16.3503 14.91 15.999 14.91Z"/></svg>